<svg width="14" height="7" viewBox="0 0 14 7" fill="none" xmlns="http://www.w3.org/2000/svg">
<path d="M12.6995 1.00395C12.489 0.832408 12.2042 0.73612 11.9074 0.73612C11.6105 0.73612 11.3258 0.832408 11.1152 1.00395L6.75556 4.57764L2.39589 1.00395C2.29516 0.907538 2.1712 0.829229 2.0318 0.773944C1.8924 0.71866 1.74056 0.687593 1.58581 0.682693C1.43107 0.677794 1.27676 0.699167 1.13257 0.745473C0.988381 0.791778 0.857425 0.862016 0.747922 0.951777C0.63842 1.04154 0.552735 1.14888 0.496245 1.26708C0.439755 1.38527 0.41368 1.51176 0.419658 1.63861C0.425634 1.76546 0.463534 1.88992 0.530978 2.00419C0.598422 2.11846 0.693954 2.22007 0.811577 2.30264L5.96902 6.53027C6.17955 6.70182 6.46433 6.79811 6.76118 6.79811C7.05802 6.79811 7.34281 6.70182 7.55334 6.53027L12.7108 2.29988C12.9175 2.12621 13.0323 1.89268 13.0302 1.65002C13.0281 1.40736 12.9093 1.17519 12.6995 1.00395Z" fill="#707070"/>
</svg>
